PathFileType	4	(X/Y/Z)	C:\Users\Basilio\Documents\Thesis Gigler\squatting_fais\c3dfiles\041\SLS_pre_back3\markers_experimental.trc
DataRate	CameraRate	NumFrames	NumMarkers	Units	OrigDataRate	OrigDataStartFrame	OrigNumFrames
200.000000	200.000000	4	62	mm	200.000000	558	1490
Frame#	Time	FHD			LBHD			RBHD			C7			T10			CLAV			LSHO			LUUPA			LMUPA			LDUPA			LLEP			LMEP			LRAD			LUL			LRFIN			RSHO			RUPA1			RMUPA			RDUPA			RLEP			RMEP			RRAD			RUL			RUFIN			LASI			RASI			USACR			LSACR			RSACR			LTHI1			LTHI2			LTHI3			LTHI4			LLFC			LMFC			LTIB1			LTIB2			LTIB3			LTIB4			LLMAL			LMMAL			LHEE			LMT1			LMT2			LMT5			RTHI			RTHI2			RTHI3			RTHI4			RLFC			RMFC			RTIB1			RTIB2			RTIB3			RTIB4			RLMAL			RMMAL			RHEE			RMT1			RMT2			RMT5			*61			
		X1	Y1	Z1	X2	Y2	Z2	X3	Y3	Z3	X4	Y4	Z4	X5	Y5	Z5	X6	Y6	Z6	X7	Y7	Z7	X8	Y8	Z8	X9	Y9	Z9	X10	Y10	Z10	X11	Y11	Z11	X12	Y12	Z12	X13	Y13	Z13	X14	Y14	Z14	X15	Y15	Z15	X16	Y16	Z16	X17	Y17	Z17	X18	Y18	Z18	X19	Y19	Z19	X20	Y20	Z20	X21	Y21	Z21	X22	Y22	Z22	X23	Y23	Z23	X24	Y24	Z24	X25	Y25	Z25	X26	Y26	Z26	X27	Y27	Z27	X28	Y28	Z28	X29	Y29	Z29	X30	Y30	Z30	X31	Y31	Z31	X32	Y32	Z32	X33	Y33	Z33	X34	Y34	Z34	X35	Y35	Z35	X36	Y36	Z36	X37	Y37	Z37	X38	Y38	Z38	X39	Y39	Z39	X40	Y40	Z40	X41	Y41	Z41	X42	Y42	Z42	X43	Y43	Z43	X44	Y44	Z44	X45	Y45	Z45	X46	Y46	Z46	X47	Y47	Z47	X48	Y48	Z48	X49	Y49	Z49	X50	Y50	Z50	X51	Y51	Z51	X52	Y52	Z52	X53	Y53	Z53	X54	Y54	Z54	X55	Y55	Z55	X56	Y56	Z56	X57	Y57	Z57	X58	Y58	Z58	X59	Y59	Z59	X60	Y60	Z60	X61	Y61	Z61	X62	Y62	Z62	

559	2.79	-74.58765411376955	1680.724243164063	-1184.6533203125	-252.0861206054688	1602.5224609375	-1248.423583984375	-227.8468627929688	1619.220825195313	-1097.939086914063	-293.5346374511719	1487.674926757813	-1162.95361328125	-409.1518554687501	1211.738159179688	-1099.180908203125	-147.4358978271485	1400.523193359375	-1162.358642578125	-227.3507995605469	1477.767822265625	-1295.5830078125	-139.2801818847657	1459.599365234375	-1434.469604492188	-94.65470123291017	1472.03125	-1422.39794921875	-87.73724365234376	1454.1826171875	-1480.694702148438	-45.46441268920899	1446.308959960938	-1502.245971679688	-4.336263179779054	1377.861083984375	-1468.818115234375	226.5225830078126	1469.84423828125	-1558.709228515625	196.9210662841797	1469.406616210938	-1625.96826171875	284.2649536132813	1514.522827148438	-1581.410522460938	-201.4987792968751	1512.096557617188	-1050.673950195313	-63.0027542114258	1516.227172851563	-925.0325317382815	-42.45624160766602	1536.359008789063	-966.542907714844	4.892131805419923	1535.449096679688	-929.7008056640627	50.51830673217775	1539.36474609375	-929.6754150390627	69.99322509765626	1455.75732421875	-942.9202270507815	312.2738647460938	1537.25927734375	-993.331237792969	314.1465759277344	1556.848022460938	-920.6325683593752	392.8977661132814	1559.52685546875	-1003.015563964844	-295.8204956054688	977.2722167968752	-1168.90234375	-326.9953918457032	990.3189086914065	-946.5000610351565	-454.3422241210939	1112.300048828125	-1085.600463867188	-474.5979003906251	1090.133666992188	-1113.727294921875	-481.6949462890626	1093.818359375	-1058.519775390625	-379.0373229980469	793.8546142578127	-1240.031860351563	-319.1918029785157	734.0571899414064	-1232.472290039063	-276.7293701171876	752.1424560546876	-1219.650512695313	-327.7420959472657	673.3111572265626	-1217.72216796875	-258.1642150878907	516.3981933593751	-1188.186279296875	-253.2272491455079	509.228729248047	-1071.41748046875	-258.8875122070313	330.2867431640626	-1114.268676757813	-311.9900207519532	291.4696350097657	-1173.93994140625	-276.9724426269532	282.4102478027344	-1146.96044921875	-296.8273315429688	211.7901153564454	-1105.838989257813	-372.6781311035157	126.1054306030274	-1140.3955078125	-339.0647277832032	139.8822784423828	-1057.630126953125	-442.7274780273439	112.0752105712891	-1098.503051757813	-240.4796752929688	64.43704223632814	-1053.76611328125	-228.725570678711	55.52771377563478	-1097.39990234375	-272.8250427246094	37.79748153686524	-1154.637084960938	-533.2255249023439	788.1903076171877	-865.6933593750002	-515.7884521484376	724.7947998046876	-853.5159912109377	-484.500946044922	714.2965698242189	-856.4553222656252	-568.8405151367189	658.6720581054689	-862.253356933594	-616.2219238281251	560.8681030273439	-853.3088378906252	-604.8922119140626	514.7802734375001	-961.1350708007815	-736.9442138671876	445.9069213867189	-850.645690917969	-843.6853637695315	480.0210876464845	-856.6133422851565	-824.1397705078127	439.2971191406251	-844.2650146484377	-851.4057617187502	390.4487304687501	-867.2479248046877	-985.5552978515627	377.2500000000001	-864.9155273437502	-943.5660400390627	349.7617797851563	-934.709167480469	-1027.333740234375	412.5125122070314	-928.9127197265627	-963.1407470703127	206.6610412597657	-913.427429199219	-972.2309570312502	204.7780303955079	-862.0184326171877	-1018.963989257813	239.5476531982422	-829.637634277344	-4216.758300781251	853.0698242187502	-3944.702880859376	
560	2.795	-73.8085403442383	1679.811157226563	-1184.353881835938	-251.8374176025391	1601.786376953125	-1247.943603515625	-227.2369232177735	1618.564819335938	-1097.692016601563	-293.2769470214844	1487.172241210938	-1162.529663085938	-409.4078674316407	1211.412353515625	-1098.940673828125	-147.3062591552735	1399.906616210938	-1162.02490234375	-227.2065734863282	1477.32763671875	-1295.160034179688	-139.0643615722657	1459.270141601563	-1434.04150390625	-93.95753479003908	1471.279296875	-1421.850341796875	-87.65388488769533	1453.846435546875	-1480.336059570313	-45.24984359741212	1445.88232421875	-1501.948852539063	-4.431467533111573	1377.314697265625	-1468.333740234375	226.7111206054688	1468.94873046875	-1558.608764648438	196.8886871337891	1468.811401367188	-1625.866455078125	284.2583312988282	1513.872680664063	-1581.4541015625	-201.2752532958985	1511.495239257813	-1050.402099609375	-62.65421295166017	1515.428344726563	-924.9859619140627	-41.83749771118165	1535.560546875	-966.5808105468752	5.583343982696534	1534.67333984375	-929.795349121094	50.82780075073244	1538.422119140625	-929.6914062500002	70.47456359863283	1454.94384765625	-943.2141113281252	312.5819091796876	1536.254150390625	-994.3129882812502	314.9301452636719	1555.8232421875	-921.3750000000002	393.0701599121095	1558.357543945313	-1004.131103515625	-295.8476867675782	976.6250000000002	-1168.715454101563	-327.4447631835938	989.7268676757815	-946.3984985351565	-454.8084106445314	1112.141723632813	-1085.459350585938	-475.5887451171876	1090.00830078125	-1113.758544921875	-481.990203857422	1093.570068359375	-1058.464721679688	-379.4312744140626	793.5713500976565	-1240.008911132813	-319.5291442871094	733.9141235351564	-1232.543701171875	-276.9715881347657	752.0912475585939	-1219.75927734375	-328.0377502441407	673.4739379882814	-1216.887451171875	-258.0889587402344	516.2791748046876	-1188.284545898438	-253.0236206054688	509.1819458007814	-1071.513671875	-258.7920227050782	330.2318115234376	-1114.327270507813	-311.9809875488282	291.4169616699219	-1173.891235351563	-276.7850036621094	282.2817382812501	-1146.991333007813	-296.8185119628907	211.6929473876954	-1105.787963867188	-372.6749572753907	126.1299133300782	-1140.408935546875	-339.0587463378907	139.8544311523438	-1057.628173828125	-442.6880493164064	112.04736328125	-1098.444946289063	-240.4821472167969	64.42378234863283	-1053.772705078125	-228.7198486328126	55.5477638244629	-1097.487548828125	-272.7577514648438	37.85361099243165	-1154.627685546875	-533.6461791992189	787.6152343750002	-865.548278808594	-516.2966308593751	724.3344726562501	-853.464294433594	-484.9193420410157	713.8730468750001	-856.5511474609377	-569.3557739257814	658.2338867187501	-862.3757324218752	-616.7895507812501	560.4564208984376	-853.3989868164065	-605.4826049804689	514.3812255859376	-961.327575683594	-737.5549926757814	445.4566955566407	-850.8265380859377	-844.407897949219	479.6881103515626	-856.4585571289065	-824.5119628906252	439.058074951172	-844.3962402343752	-852.1250000000002	390.1455993652345	-867.2134399414065	-986.175476074219	377.1932067871094	-864.7510986328127	-944.4359130859377	349.7169799804688	-934.7189941406252	-1027.992553710938	412.4492492675782	-928.7928466796877	-964.045837402344	206.569320678711	-913.3860473632815	-972.956481933594	204.8309173583985	-861.8950195312502	-1019.672302246094	239.5403442382813	-829.4160156250002	-4216.833496093751	853.1539306640627	-3944.660888671876	
561	2.8	-73.57183074951173	1679.096923828125	-1184.013061523438	-251.6397399902344	1601.09619140625	-1247.580810546875	-227.0240325927735	1617.965698242188	-1097.370971679688	-293.0603027343751	1486.612548828125	-1162.19677734375	-409.5541992187501	1211.085205078125	-1098.721557617188	-147.1768951416016	1399.245361328125	-1161.885131835938	-227.0509490966797	1476.8486328125	-1294.765747070313	-139.3606567382813	1458.765747070313	-1433.481567382813	-94.1487503051758	1470.900634765625	-1421.527465820313	-87.53820037841798	1453.420288085938	-1479.92041015625	-45.11100006103516	1445.494140625	-1501.578002929688	-4.102900981903077	1376.9560546875	-1468.313232421875	226.3571929931641	1468.490234375	-1558.586059570313	197.0351867675782	1468.082397460938	-1625.755249023438	284.2646789550782	1513.139892578125	-1581.509033203125	-201.0680084228516	1510.837524414063	-1050.099487304688	-62.46656417846681	1514.546508789063	-925.001647949219	-41.48640060424805	1534.660278320313	-966.5049438476565	6.000858783721926	1533.953002929688	-929.8918457031252	51.46861267089845	1537.533325195313	-929.9548339843752	70.99082946777345	1453.554321289063	-943.3909301757815	312.7031860351563	1535.227172851563	-994.8938598632815	315.4041442871094	1554.655395507813	-922.3052368164065	393.4046020507814	1557.189697265625	-1005.051330566406	-296.4216308593751	976.3278808593752	-1168.681274414063	-327.8659667968751	988.9946899414065	-946.0928955078127	-455.0519104003907	1111.7578125	-1085.24560546875	-475.3034667968751	1089.510620117188	-1113.40283203125	-482.4934997558595	1093.29541015625	-1058.299682617188	-379.8712768554688	793.2293090820315	-1239.932373046875	-319.7807617187501	733.7089233398439	-1232.671752929688	-277.2101440429688	751.9748535156251	-1219.903930664063	-328.2807922363282	673.3728637695314	-1216.99951171875	-258.0558166503907	516.1615600585939	-1188.394653320313	-252.9222564697266	509.0997009277345	-1071.583740234375	-258.7878417968751	330.1594543457032	-1114.316284179688	-311.8971862792969	291.3970031738282	-1173.869018554688	-276.6365356445313	282.2336120605469	-1147.078369140625	-296.8046569824219	211.6787872314454	-1105.803100585938	-372.6828308105469	126.1371307373047	-1140.39111328125	-339.0081176757813	139.8533172607422	-1057.641967773438	-442.7132263183595	112.0487442016602	-1098.46630859375	-240.2069854736329	64.11961364746095	-1053.845092773438	-228.7582702636719	55.54874801635744	-1097.54052734375	-272.7524414062501	37.87121582031251	-1154.660766601563	-534.0504760742189	787.148376464844	-865.4104614257815	-516.6326904296876	723.9119262695314	-853.538024902344	-485.2982482910157	713.2858276367189	-856.7387695312502	-569.6586914062501	657.6945190429689	-862.4946899414065	-617.3512573242189	559.9999389648439	-853.3528442382815	-605.9891357421876	514.0355224609376	-961.5061645507815	-738.0539550781251	444.9550170898439	-850.8686523437502	-845.005798339844	479.5470275878907	-856.3977661132815	-825.002624511719	438.8127441406251	-844.5264282226565	-852.8259277343752	389.8334960937501	-867.066589355469	-986.7717285156252	377.0656127929688	-864.6740722656252	-945.1670532226565	349.7263488769532	-934.6001586914065	-1028.712768554688	412.471893310547	-928.6345825195315	-964.934997558594	206.5508270263672	-913.3931274414065	-973.662780761719	204.7624206542969	-861.7895507812502	-1020.530456542969	239.424301147461	-829.075866699219	-4216.670410156251	853.1121826171877	-3944.645019531251	
562	2.805	-73.68740844726564	1678.540283203125	-1183.841674804688	-251.4080505371094	1600.628295898438	-1247.261108398438	-226.6930694580079	1617.412841796875	-1096.965454101563	-292.8799743652344	1486.103759765625	-1161.846069335938	-409.5279235839845	1210.681030273438	-1098.271728515625	-147.1920013427735	1398.452758789063	-1161.473510742188	-226.8346862792969	1476.34423828125	-1294.327270507813	-139.5488739013672	1458.25146484375	-1432.80908203125	-93.8855667114258	1470.54296875	-1421.148193359375	-87.36166381835939	1453.049926757813	-1479.533569335938	-44.92834472656251	1445.045654296875	-1501.150756835938	-4.033651351928712	1376.338623046875	-1467.959228515625	226.465805053711	1468.092407226563	-1558.539794921875	196.8107299804688	1467.53173828125	-1625.655639648438	284.3424682617188	1512.4091796875	-1581.580322265625	-200.7908325195313	1510.218994140625	-1049.851806640625	-61.81933212280275	1514.093505859375	-924.9509277343752	-40.7419662475586	1533.749633789063	-966.609313964844	6.465060234069826	1533.125610351563	-930.0892333984377	51.40525817871095	1536.671508789063	-929.733581542969	71.09271240234376	1453.2021484375	-943.6836547851565	313.5328063964844	1533.471557617188	-995.7359619140627	315.9274902343751	1553.679077148438	-923.023620605469	393.5222167968751	1556.00048828125	-1006.172302246094	-296.8475341796876	975.9945068359377	-1168.71240234375	-328.3023376464844	988.4123535156252	-945.9382934570315	-455.3902893066407	1111.434692382813	-1085.0146484375	-475.7783508300782	1089.349487304688	-1113.25	-482.6567382812501	1092.90087890625	-1058.001220703125	-380.3162231445313	792.9312744140627	-1239.944580078125	-320.1347045898438	733.5502319335939	-1232.77197265625	-277.5573425292969	751.9119262695314	-1220.083374023438	-328.5149230957032	673.1666259765626	-1216.995971679688	-258.0304260253907	516.1160278320314	-1188.46435546875	-252.8171997070313	509.0259704589845	-1071.654052734375	-258.6371765136719	330.1643676757813	-1114.376708984375	-311.8833007812501	291.3153991699219	-1173.863891601563	-276.6031188964844	282.1636352539063	-1147.000732421875	-296.8133239746094	211.4921569824219	-1105.746948242188	-372.6208801269532	126.0815582275391	-1140.366943359375	-338.9848937988282	139.8306884765625	-1057.612670898438	-442.7336730957032	112.0533294677735	-1098.4521484375	-240.5025329589844	64.36610412597658	-1053.826416015625	-228.7313995361329	55.55637741088869	-1097.481689453125	-272.7494506835938	37.86045455932618	-1154.663208007813	-534.5601196289064	786.6292724609377	-865.3332519531252	-517.1192016601564	723.2301025390626	-853.4862060546877	-485.7551574707032	712.5943603515626	-856.7649536132815	-570.1162109375001	657.1721191406251	-862.526062011719	-617.8814697265626	559.4086303710939	-853.3591308593752	-606.6752929687501	513.7176513671876	-961.5816040039065	-738.6578979492189	444.4063110351564	-850.989196777344	-845.530456542969	479.2878723144532	-856.2714843750002	-825.7220458984377	438.6319580078126	-844.511657714844	-853.0733032226565	389.7817993164064	-866.911560058594	-987.4385986328127	377.0385131835938	-864.6843261718752	-945.7719726562502	349.5648803710938	-934.441101074219	-1029.556274414063	412.455291748047	-928.520446777344	-966.0081787109377	206.2664031982422	-913.4205322265627	-974.594665527344	204.5302886962891	-861.782897949219	-1020.998718261719	239.3351593017579	-829.1695556640627	-4217.041015625001	853.1577148437502	-3944.554443359376	
